<svg width="62" height="61" viewBox="0 0 62 61" fill="none" xmlns="http://www.w3.org/2000/svg">
<g clip-path="url(#clip0)">
<path d="M12.6807 29.0417C12.6808 28.7011 12.7481 28.3639 12.8789 28.0494C13.0096 27.7349 13.2012 27.4493 13.4426 27.2091C13.684 26.9688 13.9705 26.7786 14.2857 26.6494C14.6008 26.5202 14.9383 26.4545 15.2789 26.4561L19.5865 26.4701C20.2733 26.4701 20.932 26.743 21.4176 27.2286C21.9033 27.7143 22.1761 28.373 22.1761 29.0598V45.3489C22.6613 45.2051 23.2822 45.0517 23.9654 44.8909C24.4388 44.7795 24.8606 44.5115 25.1626 44.1303C25.4645 43.7492 25.6289 43.2772 25.629 42.7909V22.5869C25.629 21.9001 25.9018 21.2413 26.3875 20.7556C26.8731 20.2698 27.5318 19.9969 28.2187 19.9968H32.5393C33.2261 19.9969 33.8848 20.2698 34.3705 20.7556C34.8561 21.2413 35.1289 21.9001 35.1289 22.5869V41.3394C35.1289 41.3394 36.2098 40.9021 37.2621 40.4576C37.6531 40.2923 37.9868 40.0154 38.2215 39.6616C38.4562 39.3078 38.5815 38.8928 38.5818 38.4683V16.1125C38.5818 15.4258 38.8546 14.7672 39.3401 14.2815C39.8257 13.7959 40.4842 13.523 41.171 13.5229H45.4871C46.1735 13.5235 46.8315 13.7967 47.3166 14.2823C47.8017 14.7678 48.0742 15.4261 48.0742 16.1125V34.5217C51.8162 31.8098 55.6084 28.548 58.6178 24.6261C59.0545 24.0568 59.3434 23.3883 59.4588 22.6802C59.5743 21.9721 59.5127 21.2464 59.2795 20.5679C57.8864 16.56 55.672 12.8871 52.778 9.7842C49.884 6.68127 46.3741 4.21666 42.4729 2.54806C38.5717 0.879469 34.3651 0.0436413 30.1223 0.0940725C25.8796 0.144504 21.6941 1.08008 17.8336 2.84093C13.9732 4.60178 10.5229 7.14914 7.70344 10.32C4.88399 13.4908 2.75752 17.2153 1.4601 21.2552C0.162679 25.295 -0.277115 29.5612 0.168858 33.7807C0.614831 38.0003 1.93675 42.0803 4.05002 45.7596C4.4182 46.3943 4.95988 46.9108 5.61142 47.2483C6.26295 47.5858 6.99728 47.7304 7.72813 47.665C8.54459 47.5931 9.56115 47.4916 10.7698 47.3498C11.2958 47.29 11.7814 47.0387 12.1342 46.644C12.4869 46.2492 12.6822 45.7385 12.6827 45.2091V29.0417" fill="white"/>
<path d="M12.5889 55.165C17.1383 58.4747 22.5147 60.4613 28.1232 60.9051C33.7317 61.3488 39.3535 60.2324 44.3669 57.6793C49.3802 55.1263 53.5896 51.2361 56.5292 46.4392C59.4689 41.6423 61.0242 36.1256 61.0232 30.4996C61.0232 29.7958 60.9905 29.103 60.9437 28.4122C49.8013 45.0306 29.2278 52.7996 12.5889 55.165" fill="#F0B90B"/>
</g>
<defs>
<clipPath id="clip0">
<rect width="61.0226" height="61" fill="white"/>
</clipPath>
</defs>
</svg>
