<svg width="61" height="61" viewBox="0 0 61 61" fill="none" xmlns="http://www.w3.org/2000/svg">
<g clip-path="url(#clip0)">
<path d="M61.0007 30.3651C61.0273 36.3974 59.2646 42.302 55.9353 47.3325C52.6061 52.3629 47.86 56.2931 42.2971 58.6262C36.7343 60.9592 30.6045 61.5903 24.683 60.4396C18.7614 59.2889 13.3141 56.4081 9.02977 52.1615C4.74548 47.9149 1.81665 42.4933 0.613647 36.5821C-0.589352 30.671 -0.0124886 24.5359 2.27129 18.9526C4.55507 13.3693 8.44319 8.58863 13.444 5.21508C18.4448 1.84154 24.3336 0.0266563 30.3659 -6.69018e-05V-6.69018e-05C34.3712 -0.0178107 38.3408 0.753537 42.048 2.26993C45.7553 3.78633 49.1275 6.01808 51.9722 8.83776C54.8169 11.6574 57.0784 15.0098 58.6275 18.7035C60.1766 22.3972 60.983 26.3598 61.0007 30.3651Z" fill="#8DC63F"/>
<path d="M58.7127 30.3762C58.7402 35.9557 57.1124 41.4179 54.0353 46.0721C50.9582 50.7264 46.57 54.3635 41.4256 56.5236C36.2812 58.6836 30.6118 59.2696 25.1344 58.2073C19.6569 57.145 14.6176 54.4822 10.6536 50.5557C6.68969 46.6291 3.97922 41.6152 2.86504 36.1481C1.75086 30.681 2.28301 25.0063 4.3942 19.8417C6.50538 14.6771 10.1008 10.2545 14.7256 7.13341C19.3505 4.0123 24.797 2.33283 30.3764 2.3074V2.3074C37.8555 2.2745 45.0415 5.21264 50.355 10.476C55.6686 15.7394 58.6747 22.8973 58.7127 30.3762V30.3762Z" fill="#F9E988"/>
<path d="M31.0198 4.12408C32.8129 3.80581 34.6481 3.80581 36.4413 4.12408C38.2517 4.41112 40.0017 4.99745 41.6196 5.85905C43.2286 6.74311 44.6188 7.94321 46.0024 9.06818C47.3859 10.1931 48.7628 11.3446 50.0735 12.6044C51.4114 13.8445 52.579 15.2565 53.5456 16.8037C54.5406 18.3387 55.3563 19.9827 55.9768 21.7036C57.1548 25.1647 57.5636 28.8932 56.9757 32.4493H56.8011C56.211 28.9241 55.411 25.5647 54.149 22.3688C53.5565 20.7624 52.8596 19.1965 52.0626 17.6811C51.2313 16.1573 50.3149 14.6815 49.3176 13.2608C48.3037 11.8297 47.0612 10.5753 45.6399 9.54778C44.2077 8.52669 42.5612 7.86586 40.9677 7.23818C39.3741 6.6105 37.7939 5.96734 36.1319 5.48995C34.4698 5.01256 32.7813 4.65452 31.0176 4.30753L31.0198 4.12408Z" fill="white"/>
<path d="M44.8085 20.4195C42.7619 19.8272 40.6402 18.9873 38.4919 18.1386C38.3682 17.5993 37.8908 16.9274 36.9249 16.1075C35.5215 14.8897 32.8848 14.9206 30.6061 15.4599C28.091 14.8676 25.6068 14.6576 23.222 15.2389C3.71752 20.6118 14.7771 33.7201 7.61621 46.897C8.63509 49.0585 19.6173 61.6696 35.5082 58.2859C35.5082 58.2859 30.0735 45.2261 42.3376 38.9582C52.2854 33.8549 59.4728 24.4132 44.8085 20.4195Z" fill="#8BC53F"/>
<path d="M47.2183 28.997C47.2196 29.2308 47.1516 29.4598 47.0227 29.655C46.8939 29.8502 46.7101 30.0028 46.4945 30.0935C46.279 30.1842 46.0414 30.2089 45.8118 30.1646C45.5821 30.1202 45.3708 30.0088 45.2045 29.8444C45.0383 29.6799 44.9245 29.4699 44.8775 29.2408C44.8306 29.0117 44.8527 28.7738 44.941 28.5572C45.0293 28.3407 45.1798 28.1552 45.3735 28.0241C45.5672 27.8931 45.7954 27.8225 46.0293 27.8212C46.3427 27.82 46.6438 27.9431 46.8667 28.1635C47.0896 28.3838 47.216 28.6836 47.2183 28.997Z" fill="white"/>
<path d="M30.6064 15.4511C32.0276 15.5527 37.1662 17.2192 38.4922 18.1298C37.3872 14.9251 33.6675 14.4985 30.6064 15.4511Z" fill="#009345"/>
<path d="M31.9601 23.5557C31.9605 24.6345 31.641 25.6893 31.042 26.5865C30.443 27.4838 29.5914 28.1832 28.5949 28.5965C27.5983 29.0097 26.5016 29.1182 25.4434 28.9082C24.3853 28.6981 23.4131 28.179 22.65 27.4165C21.8868 26.6539 21.3669 25.6822 21.156 24.6242C20.9451 23.5662 21.0527 22.4694 21.4651 21.4726C21.8776 20.4757 22.5764 19.6235 23.4731 19.0238C24.3699 18.424 25.4244 18.1037 26.5032 18.1033V18.1033C27.9491 18.1033 29.3358 18.6773 30.3587 19.6993C31.3815 20.7213 31.9567 22.1076 31.9579 23.5535L31.9601 23.5557Z" fill="white"/>
<path d="M30.3416 23.6043C30.3416 24.3631 30.1166 25.1049 29.695 25.7359C29.2734 26.3668 28.6742 26.8586 27.9731 27.149C27.272 27.4394 26.5005 27.5154 25.7563 27.3674C25.012 27.2193 24.3283 26.8539 23.7917 26.3173C23.2552 25.7807 22.8897 25.0971 22.7417 24.3528C22.5936 23.6085 22.6696 22.8371 22.96 22.136C23.2504 21.4349 23.7422 20.8357 24.3732 20.4141C25.0041 19.9925 25.7459 19.7675 26.5048 19.7675C27.5224 19.7675 28.4983 20.1717 29.2178 20.8912C29.9374 21.6108 30.3416 22.5867 30.3416 23.6043Z" fill="#58595B"/>
<path d="M51.6361 31.4017C47.2158 34.5158 42.1899 36.8784 35.06 36.8784C31.7227 36.8784 31.0464 33.3422 28.8407 35.0705C27.7024 35.9678 23.6888 37.9746 20.504 37.8221C17.3192 37.6696 12.1563 35.8043 10.7175 29.0037C10.1472 35.8043 9.8555 40.8103 7.29395 46.55C12.3773 54.69 24.4977 60.969 35.4998 58.2638C34.3262 50.0089 41.5512 41.9242 45.6046 37.7934C47.1517 36.2264 50.0912 33.6693 51.6361 31.4039V31.4017Z" fill="#8BC53F"/>
<path d="M51.4641 31.605C50.0916 32.856 48.4583 33.782 46.7963 34.5998C45.1136 35.3977 43.36 36.0363 41.5582 36.5071C39.7547 36.9734 37.8739 37.3249 35.9688 37.1525C34.0636 36.9801 32.1165 36.3325 30.8545 34.9048L30.9142 34.8362C32.4613 35.8396 34.2471 36.1933 36.024 36.2441C37.8252 36.2994 39.6268 36.1512 41.3947 35.8021C43.1804 35.4277 44.9274 34.8876 46.6128 34.1887C48.2992 33.4925 49.9678 32.6858 51.4044 31.5365L51.4641 31.605Z" fill="#58595B"/>
</g>
<defs>
<clipPath id="clip0">
<rect width="61" height="61" fill="white"/>
</clipPath>
</defs>
</svg>
