<svg width="63" height="61" viewBox="0 0 63 61" fill="none" xmlns="http://www.w3.org/2000/svg">
<path fill-rule="evenodd" clip-rule="evenodd" d="M54.7808 36.4512C53.6656 37.1237 52.3524 37.207 51.3542 36.6699C50.0862 35.987 49.3891 34.3876 49.3891 32.1634V25.5084C49.3891 22.2948 48.0572 20.008 45.83 19.3906C42.0557 18.3417 39.2171 22.747 38.1503 24.4015L31.4938 34.6971V22.1132C31.4189 19.218 30.4332 17.4862 28.5617 16.964C27.3233 16.6188 25.4705 16.7571 23.6706 19.3846L8.75737 42.2284C6.76084 38.6127 5.72005 34.5866 5.72543 30.5C5.72543 16.7393 17.2855 5.54505 31.4938 5.54505C45.7021 5.54505 57.2606 16.7393 57.2606 30.5C57.2606 30.5238 57.2668 30.5446 57.2684 30.567C57.2684 30.5908 57.2637 30.6116 57.2653 30.6354C57.3994 33.3 56.4948 35.4187 54.7808 36.4512ZM62.986 30.5015V30.4316L62.9845 30.3631C62.9049 13.6045 48.8105 0 31.4922 0C14.1288 0 0 13.6819 0 30.5C0 47.3167 14.1288 61 31.4938 61C39.462 61 47.0668 58.1107 52.9045 52.8662C54.0649 51.8247 54.1335 50.0706 53.0574 48.9488C52.8041 48.6823 52.4976 48.4668 52.1559 48.3148C51.8141 48.1627 51.4441 48.0773 51.0673 48.0634C50.6905 48.0496 50.3146 48.1076 49.9616 48.2341C49.6087 48.3605 49.2857 48.5529 49.0117 48.8C44.2798 53.0744 38.0105 55.4561 31.4938 55.4549C23.8859 55.4549 17.0406 52.2428 12.3196 47.1485L25.7684 26.5484V36.045C25.7684 40.6067 27.6228 42.0811 29.1777 42.5125C30.7342 42.944 33.1127 42.6494 35.6097 38.7811L43.007 27.3414C43.2441 26.9724 43.4625 26.654 43.6621 26.3788V32.1634C43.6621 36.4274 45.4526 39.8375 48.5734 41.5172C51.387 43.0318 54.9242 42.8949 57.8065 41.1601C61.3 39.0549 63.1825 35.1762 62.986 30.5015Z" fill="white"/>
</svg>
